<svg xmlns="http://www.w3.org/2000/svg" xmlns:xlink="http://www.w3.org/1999/xlink" viewBox="0 0 13.75 13.75"><defs><style>.cls-1{fill:none;}.cls-2{fill:url(#未命名漸層_26);}.cls-3{fill:url(#未命名漸層_71);}.cls-4{fill:url(#未命名漸層_71-2);}.cls-5{fill:url(#未命名漸層_71-3);}.cls-6{fill:url(#未命名漸層_71-4);}.cls-7{fill:url(#未命名漸層_71-5);}</style><linearGradient id="未命名漸層_26" x1="2.3" y1="8.12" x2="12.33" y2="8.12" gradientUnits="userSpaceOnUse"><stop offset="0" stop-color="#70eeee" stop-opacity="0"/><stop offset="0.18" stop-color="#70eeee" stop-opacity="0.01"/><stop offset="0.26" stop-color="#70eeee" stop-opacity="0.04"/><stop offset="0.32" stop-color="#70eeee" stop-opacity="0.09"/><stop offset="0.37" stop-color="#70eeee" stop-opacity="0.17"/><stop offset="0.41" stop-color="#70eeee" stop-opacity="0.27"/><stop offset="0.45" stop-color="#70eeee" stop-opacity="0.39"/><stop offset="0.48" stop-color="#70eeee" stop-opacity="0.5"/><stop offset="0.73" stop-color="#3b93f4" stop-opacity="0.77"/><stop offset="0.91" stop-color="#1a59f8" stop-opacity="0.94"/><stop offset="1" stop-color="#0d43f9"/></linearGradient><linearGradient id="未命名漸層_71" x1="0.89" y1="8.18" x2="13.24" y2="3.16" gradientUnits="userSpaceOnUse"><stop offset="0" stop-color="#70eeee"/><stop offset="1" stop-color="#0d43f9"/></linearGradient><linearGradient id="未命名漸層_71-2" x1="0.26" y1="6.64" x2="12.61" y2="1.61" xlink:href="#未命名漸層_71"/><linearGradient id="未命名漸層_71-3" x1="0.18" y1="6.43" x2="12.53" y2="1.41" xlink:href="#未命名漸層_71"/><linearGradient id="未命名漸層_71-4" x1="0.42" y1="7.03" x2="12.77" y2="2" xlink:href="#未命名漸層_71"/><linearGradient id="未命名漸層_71-5" x1="0.16" y1="6.39" x2="12.51" y2="1.36" xlink:href="#未命名漸層_71"/></defs><g id="圖層_2" data-name="圖層 2"><path class="cls-1" d="M6.22,10A3.14,3.14,0,1,0,3.09,6.88a3.39,3.39,0,0,0,.06.64,5.29,5.29,0,0,1,.67-1.79,5.29,5.29,0,0,0-.67,1.79A3.14,3.14,0,0,0,6.22,10Z"/><path class="cls-2" d="M11.14,3.26H8.26a5.52,5.52,0,0,0-2.3.5l.26,0A3.14,3.14,0,1,1,3.15,7.52a6.15,6.15,0,0,0,1.64,5.3,6.15,6.15,0,0,0,7.54-5.94A6,6,0,0,0,11.14,3.26Z"/><path class="cls-3" d="M8.89.77H6.2A6.11,6.11,0,0,0,4.12,12.61,5.57,5.57,0,0,1,8,3h.94V1.89H10V.77Z"/><rect class="cls-4" x="10.01" y="1.89" width="1.12" height="1.12"/><rect class="cls-5" x="13.01" y="0.77" width="0.63" height="0.63"/><rect class="cls-6" x="12.35" y="1.92" width="0.37" height="0.37"/><rect class="cls-7" x="11.65" y="1.22" width="0.69" height="0.69"/></g></svg>